<?xml version="1.0" encoding="UTF-8"?>
<svg viewBox="0 0 325 40" version="1.1" xmlns="http://www.w3.org/2000/svg" xmlns:xlink="http://www.w3.org/1999/xlink">
    <defs>
        <polygon id="path-1" points="0 40 325 40 325 0 0 0"/>
        <polygon id="path-2" points="5.51036005 0 0 16.5095324 16.5263715 11.004983 16.5263715 0"/>
        <linearGradient x1="0.000506802479%" y1="50.0005442%" x2="100.001509%" y2="50.0005442%" id="linearGradient-5">
            <stop stop-color="#F05923" offset="0%"/>
            <stop stop-color="#1C1C1A" offset="100%"/>
        </linearGradient>
    </defs>
    <g fill="#FFFFFF">
        <mask id="mask-2" fill="#FFFFFF">
            <use xlink:href="#path-1"/>
        </mask>
        <path d="M240.109437,6.30394967 L240.109437,0.819979127 L242.377854,0.819979127 L242.377854,6.21987035 C242.377854,8.0807867 243.190694,8.84984786 244.562693,8.84984786 C245.949406,8.84984786 246.747531,8.0807867 246.747531,6.21987035 L246.747531,0.819979127 L248.988285,0.819979127 L248.988285,6.30394967 C248.988285,9.18557716 247.33553,10.7807323 244.548567,10.7807323 C241.762191,10.7807323 240.109437,9.18557716 240.109437,6.30394967"/>
        <polygon points="260.312717 0.820037924 260.312717 10.6126325 258.449836 10.6126325 253.562202 4.66651967 253.562202 10.6126325 251.321448 10.6126325 251.321448 0.820037924 253.198455 0.820037924 258.071963 6.76556276 258.071963 0.820037924"/>
        <polygon mask="url(#mask-2)" points="262.729753 10.6128089 264.998171 10.6128089 264.998171 0.820214314 262.729753 0.820214314"/>
        <polygon mask="url(#mask-2)" points="276.834792 0.820037924 272.591073 10.6126325 270.350907 10.6126325 266.121314 0.820037924 268.572194 0.820037924 271.555158 7.81449633 274.5805 0.820037924"/>
        <polygon mask="url(#mask-2)" points="285.564374 8.79387338 285.564374 10.6124561 277.973945 10.6124561 277.973945 0.819861534 285.381912 0.819861534 285.381912 2.63844424 280.228236 2.63844424 280.228236 4.76512178 284.779787 4.76512178 284.779787 6.5278476 280.228236 6.5278476 280.228236 8.79387338"/>
        <path d="M291.658025,2.66643148 L289.80927,2.66643148 L289.80927,6.07958137 L291.658025,6.07958137 C293.04415,6.07958137 293.744569,5.4363452 293.744569,4.37330041 C293.744569,3.2961444 293.04415,2.66643148 291.658025,2.66643148 L291.658025,2.66643148 Z M293.786359,10.6128089 L291.895815,7.88464083 L291.783983,7.88464083 L289.80927,7.88464083 L289.80927,10.6128089 L287.540853,10.6128089 L287.540853,0.820214314 L291.783983,0.820214314 C294.40261,0.820214314 296.041828,2.17665476 296.041828,4.37330041 C296.041828,5.8420426 295.29903,6.9191986 294.024737,7.46542018 L296.223113,10.6128089 L293.786359,10.6128089 Z" mask="url(#mask-2)"/>
        <path d="M297.22177,9.64754303 L297.992232,7.9406741 C298.81802,8.5421646 300.050523,8.96197322 301.227111,8.96197322 C302.571446,8.96197322 303.117655,8.51394217 303.117655,7.91245168 C303.117655,6.07975776 297.41777,7.33918361 297.41777,3.70143023 C297.41777,2.03689494 298.762105,0.652232071 301.549068,0.652232071 C302.781571,0.652232071 304.042327,0.945627729 304.952284,1.51948376 L304.251864,3.24046391 C303.341907,2.72246476 302.403109,2.47081478 301.534942,2.47081478 C300.190607,2.47081478 299.67265,2.97411474 299.67265,3.58971645 C299.67265,5.39477591 305.372535,4.14946128 305.372535,7.74429304 C305.372535,9.38178183 304.014074,10.7805559 301.212985,10.7805559 C299.658524,10.7805559 298.089937,10.3184137 297.22177,9.64754303" mask="url(#mask-2)"/>
        <path d="M312.71358,6.7934912 L311.15912,3.04402405 L309.604659,6.7934912 L312.71358,6.7934912 Z M313.427538,8.51388338 L308.876576,8.51388338 L308.008409,10.6123385 L305.683486,10.6123385 L310.052574,0.81974394 L312.293329,0.81974394 L316.677131,10.6123385 L314.296293,10.6123385 L313.427538,8.51388338 Z" mask="url(#mask-2)"/>
        <polygon mask="url(#mask-2)" points="317.815814 0.820037924 320.084231 0.820037924 320.084231 8.76582734 325.000118 8.76582734 325.000118 10.6126325 317.815814 10.6126325"/>
        <path d="M239.423025,23.8677662 L240.193487,22.1608972 C241.019276,22.7623877 242.251779,23.1821964 243.428366,23.1821964 C244.772701,23.1821964 245.318911,22.7341653 245.318911,22.1326748 C245.318911,20.2999809 239.619025,21.5594067 239.619025,17.9216534 C239.619025,16.2571181 240.96336,14.8724552 243.750324,14.8724552 C244.982827,14.8724552 246.243582,15.1658509 247.153539,15.7397069 L246.453119,17.460687 C245.543163,16.9426879 244.604365,16.6910379 243.736198,16.6910379 C242.391863,16.6910379 241.873905,17.1943379 241.873905,17.8099396 C241.873905,19.614999 247.573791,18.3696844 247.573791,21.9645162 C247.573791,23.602005 246.21533,25.0007791 243.41424,25.0007791 C241.859779,25.0007791 240.291193,24.5386368 239.423025,23.8677662" mask="url(#mask-2)"/>
        <polygon mask="url(#mask-2)" points="256.884074 23.0140965 256.884074 24.8326792 249.293645 24.8326792 249.293645 15.0400847 256.701612 15.0400847 256.701612 16.8586674 251.547936 16.8586674 251.547936 18.9853449 256.099487 18.9853449 256.099487 20.7480707 251.547936 20.7480707 251.547936 23.0140965"/>
        <path d="M264.807763,21.0137143 L263.253302,17.2642472 L261.698841,21.0137143 L264.807763,21.0137143 Z M265.52172,22.7341065 L260.970758,22.7341065 L260.102591,24.8325616 L257.777669,24.8325616 L262.146757,15.0399671 L264.387511,15.0399671 L268.770725,24.8325616 L266.390476,24.8325616 L265.52172,22.7341065 Z" mask="url(#mask-2)"/>
        <path d="M274.027404,16.8865958 L272.178649,16.8865958 L272.178649,20.2997457 L274.027404,20.2997457 C275.413528,20.2997457 276.113948,19.6565095 276.113948,18.5934647 C276.113948,17.5163087 275.413528,16.8865958 274.027404,16.8865958 L274.027404,16.8865958 Z M276.155738,24.8329732 L274.265193,22.1048052 L274.153362,22.1048052 L272.178649,22.1048052 L272.178649,24.8329732 L269.910231,24.8329732 L269.910231,15.0403787 L274.153362,15.0403787 C276.771989,15.0403787 278.411207,16.3968191 278.411207,18.5934647 C278.411207,20.0622069 277.668409,21.1393629 276.394116,21.6855845 L278.592492,24.8329732 L276.155738,24.8329732 Z" mask="url(#mask-2)"/>
        <path d="M279.620637,19.9363231 C279.620637,16.9847276 281.889055,14.8721612 284.94206,14.8721612 C286.636605,14.8721612 288.05157,15.4877629 288.975653,16.6066646 L287.518898,17.9501698 C286.860857,17.1946319 286.034479,16.8030457 285.053892,16.8030457 C283.219852,16.8030457 281.917307,18.090106 281.917307,19.9363231 C281.917307,21.7831283 283.219852,23.0701886 285.053892,23.0701886 C286.034479,23.0701886 286.860857,22.6786024 287.518898,21.9089533 L288.975653,23.2518705 C288.05157,24.3854713 286.636605,25.001073 284.927934,25.001073 C281.889055,25.001073 279.620637,22.8879187 279.620637,19.9363231" mask="url(#mask-2)"/>
        <polygon mask="url(#mask-2)" points="299.473472 15.0402023 299.473472 24.8327968 297.204465 24.8327968 297.204465 20.8175685 292.751209 20.8175685 292.751209 24.8327968 290.482203 24.8327968 290.482203 15.0402023 292.751209 15.0402023 292.751209 18.9007952 297.204465 18.9007952 297.204465 15.0402023"/>
        <path d="M246.817279,34.0020285 L248.890285,34.0020285 L248.890285,37.9749232 C247.811404,38.786906 246.326985,39.2208258 244.926734,39.2208258 C241.845477,39.2208258 239.577059,37.1076715 239.577059,34.1560759 C239.577059,31.2038923 241.845477,29.091914 244.969113,29.091914 C246.691321,29.091914 248.119824,29.6792933 249.072159,30.7846717 L247.615404,32.1275889 C246.901447,31.372051 246.075069,31.0227984 245.080944,31.0227984 C243.176274,31.0227984 241.873729,32.2957475 241.873729,34.1560759 C241.873729,35.9887698 243.176274,37.2899414 245.052692,37.2899414 C245.668944,37.2899414 246.243406,37.1782276 246.817279,36.8701327 L246.817279,34.0020285 Z" mask="url(#mask-2)"/>
        <path d="M255.203421,31.1063486 L253.354666,31.1063486 L253.354666,34.5194985 L255.203421,34.5194985 C256.589545,34.5194985 257.289965,33.8762623 257.289965,32.8132175 C257.289965,31.7360615 256.589545,31.1063486 255.203421,31.1063486 L255.203421,31.1063486 Z M257.331754,39.052726 L255.44121,36.3245579 L255.329378,36.3245579 L253.354666,36.3245579 L253.354666,39.052726 L251.086248,39.052726 L251.086248,29.2601314 L255.329378,29.2601314 C257.948006,29.2601314 259.587223,30.6165719 259.587223,32.8132175 C259.587223,34.2819597 258.844425,35.3591157 257.570133,35.9053373 L259.768508,39.052726 L257.331754,39.052726 Z" mask="url(#mask-2)"/>
        <path d="M269.227822,34.1560171 C269.227822,32.2956887 267.911151,31.0227396 266.160691,31.0227396 C264.41023,31.0227396 263.094148,32.2956887 263.094148,34.1560171 C263.094148,36.0169335 264.41023,37.2898826 266.160691,37.2898826 C267.911151,37.2898826 269.227822,36.0169335 269.227822,34.1560171 M260.796889,34.1560171 C260.796889,31.2461672 263.065896,29.0918552 266.160691,29.0918552 C269.241949,29.0918552 271.524493,31.232056 271.524493,34.1560171 C271.524493,37.0799782 269.241949,39.220767 266.160691,39.220767 C263.065896,39.220767 260.796889,37.066455 260.796889,34.1560171" mask="url(#mask-2)"/>
        <path d="M273.223864,34.7438668 L273.223864,29.2598962 L275.492281,29.2598962 L275.492281,34.6597874 C275.492281,36.5207038 276.305121,37.289765 277.67712,37.289765 C279.063833,37.289765 279.861958,36.5207038 279.861958,34.6597874 L279.861958,29.2598962 L282.102712,29.2598962 L282.102712,34.7438668 C282.102712,37.6254943 280.449957,39.2206494 277.662994,39.2206494 C274.876618,39.2206494 273.223864,37.6254943 273.223864,34.7438668" mask="url(#mask-2)"/>
        <path d="M290.639415,32.8132763 C290.639415,31.7361203 289.939584,31.1064074 288.552871,31.1064074 L286.704116,31.1064074 L286.704116,34.506034 L288.552871,34.506034 C289.939584,34.506034 290.639415,33.8763211 290.639415,32.8132763 M292.936673,32.8132763 C292.936673,34.9958107 291.297456,36.3522512 288.678828,36.3522512 L286.704116,36.3522512 L286.704116,39.0527848 L284.435698,39.0527848 L284.435698,29.2601902 L288.678828,29.2601902 C291.297456,29.2601902 292.936673,30.6166307 292.936673,32.8132763" mask="url(#mask-2)"/>
        <polygon mask="url(#mask-2)" points="28.4832995 0.662991871 19.1918507 26.1878261 9.45719517 0.662991871 -0.000235435166 0.662991871 15.4861012 39.3371257 22.2884117 39.3371257 37.3874575 0.662991871"/>
        <polygon mask="url(#mask-2)" points="43.0911098 39.3373609 51.9405291 39.3373609 51.9405291 0.663227058 43.0911098 0.663227058"/>
        <polygon mask="url(#mask-2)" points="128.853666 0.651996884 137.758413 0.651996884 149.704982 16.5100616 160.987035 0.651996884 169.338509 0.651996884 169.338509 39.3261307 160.489678 39.3261307 160.489678 14.6844233 149.704982 29.3283356 148.432455 29.3283356 137.703085 14.850818 137.703085 39.3261307 128.853666 39.3261307"/>
        <path d="M69.0859184,11.1598536 C69.0859184,9.39242404 70.5238387,8.28704561 72.9576497,8.28704561 C75.8340789,8.28704561 77.1054288,9.28129823 78.8199854,10.883509 L83.5763643,4.25417824 C81.1431419,1.6571269 77.1613446,0.0002351869 72.1836566,0.0002351869 C64.440194,0.0002351869 59.6838151,5.19316194 59.6838151,11.1598536 C59.6838151,23.6465141 75.8340789,22.9286061 75.8340789,28.729491 C75.8340789,30.5521894 74.505636,31.7128368 72.1836566,31.7128368 C70.0547341,31.7128368 67.5185088,30.9243727 65.4555082,29.2222075 L60.5413877,35.9950023 C63.2294687,38.6185121 67.8540039,39.9996472 71.9623476,39.9996472 C79.4285853,39.9996472 85.2355936,35.3588217 85.2355936,28.6183652 C85.2355936,16.0223428 69.0859184,17.5692846 69.0859184,11.1598536" mask="url(#mask-2)"/>
        <polygon mask="url(#mask-2)" points="109.909317 24.9850215 109.909317 39.3373021 101.059897 39.3373021 101.059897 24.9850215 87.6088978 0.663168262 97.7308442 0.663168262 105.871604 16.6970352 113.979991 0.663168262 123.548664 0.663168262"/>
        <path d="M208.446409,18.6986521 C208.484078,19.1225765 208.503502,19.5564963 208.503502,20.0004116 C208.503502,26.5186165 204.687098,31.7127192 197.331514,31.7127192 C191.137215,31.7127192 186.159527,26.6297423 186.159527,20.0004116 C186.159527,12.9283415 190.915906,8.28692802 197.331514,8.28692802 C197.917159,8.28692802 198.490444,8.32808573 199.050191,8.4074613 L201.687654,0.371124928 C200.292112,0.127118519 198.836534,-0.0004703738 197.331514,-0.0004703738 C184.998243,-0.0004703738 176.757424,8.78434831 176.757424,20.0004116 C176.757424,32.3206773 185.550927,40.0001176 197.331514,40.0001176 C209.112102,40.0001176 217.905605,31.7127192 217.905605,20.0004116 C217.905605,18.5046229 217.773761,17.0782143 217.524789,15.7247137 L208.446409,18.6986521 Z" mask="url(#mask-2)"/>
    </g>
    <g transform="translate(199.812059, 1.252370)">
        <mask id="mask-4" fill="#FFFFFF">
            <use xlink:href="#path-2"/>
        </mask>
        <polygon points="5.51036005 0 0 16.5095324 16.5263715 11.004983 16.5263715 0"/>
        <polygon fill="url(#linearGradient-5)" mask="url(#mask-4)" points="5.51036005 0 0 16.5095324 16.5263715 11.004983 16.5263715 0"/>
    </g>
    <polygon fill="#FF7B00" points="205.322419 12.2567653 216.338431 12.2567653 216.338431 1.25237024 205.322419 1.25237024"/>
</svg>
