<?xml version="1.0" encoding="UTF-8"?>
<svg version="1.1" xmlns="http://www.w3.org/2000/svg">
    <symbol id="two" viewBox="0 0 460 396" fill="none">
        <g transform="translate(-1045.000000, -119.000000)">
            <g transform="translate(1046.000000, 120.000000)">
                <g transform="translate(97.500000, 163.500000) rotate(-90.000000) translate(-97.500000, -163.500000) translate(0.000000, 66.000000)" stroke="#FFD500">
                    <polyline points="0 64 131 64 131 195"/>
                    <line x1="195" y1="-2.27373675e-13" x2="-6.92779167e-13" y2="195"/>
                    <polygon points="195 -1.61293201e-12 -6.94736171e-13 64.4491525 0 195 130.550847 195"/>
                </g>
                <g transform="translate(64.000000, 0.000000)" stroke="#FFFFFF">
                    <polyline points="0 130 264 130 264 394"/>
                    <line x1="394" y1="0" x2="-1.39976919e-12" y2="394"/>
                    <polygon points="394 -2.79953838e-12 -1.40372334e-12 130.220339 0 394 263.779661 394"/>
                </g>
            </g>
        </g>
    </symbol>
    <symbol id="three" viewBox="0 0 674 674" fill="none">
        <g transform="translate(-831.000000, -203.000000)">
            <g transform="translate(832.000000, 204.000000)">
                <g transform="translate(447.000000, 225.000000) rotate(-270.000000) translate(-447.000000, -225.000000) translate(222.000000, 0.000000)" stroke="#646D76">
                    <polyline points="0 148 302 148 302 450"/>
                    <line x1="450" y1="0" x2="-1.59872116e-12" y2="450"/>
                    <polygon points="450 -3.19744231e-12 -1.60323732e-12 148.728814 0 450 301.271186 450"/>
                </g>
                <g transform="translate(373.000000, 151.000000) rotate(-90.000000) translate(-373.000000, -151.000000) translate(222.000000, 0.000000)" stroke="#FFFFFF">
                    <polyline points="4.54747351e-13 100 202 100 202 302"/>
                    <line x1="302" y1="0" x2="-1.07291953e-12" y2="302"/>
                    <polygon points="302 -2.14583906e-12 -1.07595038e-12 99.8135593 0 302 202.186441 302"/>
                </g>
                <g transform="translate(336.000000, 336.000000) rotate(-180.000000) translate(-336.000000, -336.000000) translate(0.000000, 0.000000)" stroke="#FF7B00">
                    <polyline points="0 222 450 222 450 672"/>
                    <line x1="672" y1="-4.54747351e-13" x2="-1.47792889e-12" y2="672"/>
                    <polygon points="672 -5.22959454e-12 -1.48467302e-12 222.101695 9.09494702e-13 672 449.898305 672"/>
                </g>
            </g>
        </g>
    </symbol>
</svg>
